<svg width="17" height="16" viewBox="0 0 17 16" fill="none" xmlns="http://www.w3.org/2000/svg">
<path d="M8.15199 16H7.99999C5.88494 15.9799 3.86391 15.123 2.37897 13.6168C0.894031 12.1105 0.0660321 10.0775 0.0760791 7.96237C0.0861262 5.84724 0.933402 3.82217 2.43259 2.33009C3.93177 0.838013 5.96084 0.000366211 8.07599 0.000366211C10.1911 0.000366211 12.2202 0.838013 13.7194 2.33009C15.2186 3.82217 16.0659 5.84724 16.0759 7.96237C16.0859 10.0775 15.2579 12.1105 13.773 13.6168C12.2881 15.123 10.267 15.9799 8.15199 16ZM7.74199 1.79801C7.51599 2.07101 7.27899 2.51101 7.06499 3.12101C6.69599 4.17601 6.43899 5.61701 6.37799 7.25001H9.92499C9.86499 5.61701 9.60699 4.17601 9.23799 3.12101C9.02499 2.51101 8.78799 2.07101 8.56199 1.79801C8.36799 1.56301 8.23599 1.51301 8.17699 1.50201H8.13299C8.07799 1.50901 7.94299 1.55401 7.74199 1.79801ZM4.87699 7.25001C4.93899 5.47901 5.21699 3.86401 5.64999 2.62601C5.74899 2.34201 5.85799 2.07201 5.97899 1.82001C4.79831 2.20711 3.75315 2.92417 2.96706 3.88641C2.18096 4.84865 1.6868 6.01584 1.54299 7.25001H4.87699ZM1.54299 8.75C1.6868 9.98417 2.18096 11.1514 2.96706 12.1136C3.75315 13.0758 4.79831 13.7929 5.97899 14.18C5.85439 13.9176 5.74422 13.6485 5.64899 13.374C5.21599 12.136 4.93899 10.521 4.87699 8.75H1.54299ZM6.37799 8.75C6.43899 10.383 6.69599 11.824 7.06499 12.879C7.27899 13.489 7.51599 13.929 7.74199 14.202C7.94399 14.446 8.07799 14.492 8.13299 14.499L8.17699 14.498C8.23699 14.488 8.36699 14.437 8.56199 14.202C8.78799 13.929 9.02499 13.489 9.23799 12.879C9.60799 11.824 9.86399 10.383 9.92499 8.75H6.37799ZM11.426 8.75C11.365 10.521 11.087 12.136 10.654 13.374C10.572 13.609 10.483 13.834 10.386 14.048C11.4802 13.6155 12.4367 12.8945 13.1535 11.9615C13.8704 11.0286 14.3209 9.91867 14.457 8.75H11.427H11.426ZM14.457 7.25001C14.3208 6.08137 13.8703 4.97153 13.1534 4.0386C12.4365 3.10567 11.4801 2.38455 10.386 1.95201C10.483 2.16601 10.572 2.39201 10.654 2.62601C11.087 3.86401 11.365 5.47901 11.426 7.25001H14.457Z" fill="white"/>
</svg>
