<svg width="48" height="48" viewBox="0 0 48 48" fill="none" xmlns="http://www.w3.org/2000/svg">
<rect width="48" height="48" rx="24" fill="#1F1F1F"/>
<path d="M25.5 13.515C25.0439 13.2517 24.5266 13.1131 24 13.1131C23.4734 13.1131 22.9561 13.2517 22.5 13.515L15 17.845C14.696 18.0205 14.4435 18.273 14.268 18.577C14.0924 18.8811 14 19.2259 14 19.577V33C14 33.2652 14.1054 33.5196 14.2929 33.7071C14.4804 33.8947 14.7348 34 15 34H21C21.2652 34 21.5196 33.8947 21.7071 33.7071C21.8946 33.5196 22 33.2652 22 33V27H26V33C26 33.2652 26.1054 33.5196 26.2929 33.7071C26.4804 33.8947 26.7348 34 27 34H33C33.2652 34 33.5196 33.8947 33.7071 33.7071C33.8946 33.5196 34 33.2652 34 33V19.577C34 19.2259 33.9076 18.8811 33.732 18.577C33.5565 18.273 33.304 18.0205 33 17.845L25.5 13.515Z" fill="white"/>
</svg>
