<svg width="117" height="32" viewBox="0 0 117 32" fill="none" xmlns="http://www.w3.org/2000/svg">
<path d="M16.636 0.0133311C7.80667 -0.337336 0.365341 6.536 0.0146739 15.3653C-0.335993 24.196 6.53734 31.6373 15.368 31.9867C24.1973 32.3373 31.6387 25.464 31.9893 16.6347C32.34 7.80533 25.4653 0.362664 16.636 0.0133311ZM23.3907 23.452C23.2652 23.672 23.0575 23.8331 22.8133 23.9001C22.569 23.9671 22.3082 23.9345 22.088 23.8093C19.9727 22.6057 17.6479 21.8152 15.2373 21.48C12.828 21.1379 10.3756 21.2569 8.01067 21.8307C7.76933 21.8775 7.51921 21.8296 7.31229 21.6968C7.10537 21.564 6.95755 21.3567 6.89954 21.1178C6.84153 20.8788 6.87779 20.6268 7.00079 20.4139C7.12378 20.201 7.32406 20.0437 7.56001 19.9747C10.16 19.3427 12.8333 19.2133 15.504 19.588C18.1747 19.964 20.708 20.8253 23.0333 22.148C23.1424 22.2102 23.2382 22.2932 23.3152 22.3924C23.3922 22.4915 23.4489 22.6049 23.4821 22.726C23.5153 22.8471 23.5243 22.9735 23.5086 23.0981C23.4929 23.2227 23.4528 23.3429 23.3907 23.452ZM25.4933 19.252C25.4159 19.3955 25.3109 19.5224 25.1844 19.6253C25.0579 19.7282 24.9123 19.8052 24.756 19.8518C24.5997 19.8983 24.4358 19.9136 24.2735 19.8967C24.1113 19.8798 23.954 19.8311 23.8107 19.7533C21.3336 18.4142 18.6369 17.5291 15.848 17.14C13.0599 16.7453 10.2236 16.8528 7.47334 17.4573C7.31399 17.4927 7.14922 17.4962 6.9885 17.4677C6.82778 17.4392 6.67427 17.3793 6.53677 17.2913C6.39926 17.2034 6.28048 17.0891 6.18722 16.9552C6.09397 16.8212 6.02808 16.6702 5.99334 16.5107C5.95801 16.3513 5.95449 16.1865 5.98297 16.0258C6.01146 15.8651 6.0714 15.7116 6.15935 15.5741C6.24731 15.4366 6.36154 15.3178 6.4955 15.2245C6.62947 15.1313 6.78052 15.0654 6.94001 15.0307C9.9787 14.3615 13.1128 14.2431 16.1933 14.6813C19.2753 15.1093 22.2555 16.087 24.992 17.568C25.5947 17.8947 25.8187 18.648 25.4933 19.252ZM27.824 14.5173C27.6368 14.8768 27.3145 15.1472 26.928 15.2692C26.5415 15.3912 26.1223 15.3548 25.7627 15.168C22.8782 13.6683 19.7586 12.6727 16.5387 12.224C13.3197 11.7674 10.0463 11.8644 6.86001 12.5107C6.46512 12.5857 6.05655 12.5022 5.72284 12.2781C5.38913 12.054 5.15715 11.7075 5.07718 11.3136C4.9972 10.9197 5.07566 10.5101 5.29557 10.1736C5.51548 9.83714 5.85911 9.60087 6.25201 9.516C9.77841 8.80022 13.4012 8.692 16.964 9.196C20.5279 9.69344 23.9807 10.796 27.1733 12.456C27.9213 12.8453 28.2133 13.768 27.824 14.5173ZM45.9733 14.4693L44.864 14.14C42.6373 13.48 42.0107 13.232 42.0107 12.336C42.0107 11.4867 42.9547 10.5667 45.0293 10.5667C47.0813 10.5667 48.8147 11.5693 49.7093 12.3133C49.864 12.4413 50.0293 12.3827 50.0293 12.1827V9.24667C50.0293 9.11733 49.9933 9.04666 49.8987 8.976C48.792 8.14933 46.8693 7.54933 44.9347 7.54933C40.9973 7.54933 38.6387 9.78933 38.6387 12.336C38.6387 15.212 40.4667 16.216 43.4733 17.064L44.7707 17.4293C47.0227 18.0667 47.4347 18.632 47.4347 19.504C47.4347 20.9667 46.3267 21.4147 44.6747 21.4147C42.6 21.4147 40.0653 20.2 38.8747 18.7147C38.768 18.584 38.6387 18.644 38.6387 18.7973V22.028C38.6387 22.1573 38.652 22.216 38.7453 22.3213C39.736 23.4067 42.1053 24.3613 44.8653 24.3613C48.26 24.3613 50.8067 22.3813 50.8067 19.316C50.8067 16.9333 49.404 15.496 45.9733 14.4693ZM59.4493 12.1227C57.2093 12.1227 55.912 13.4907 55.1573 14.8587V12.5013C55.1573 12.3947 55.0987 12.336 54.992 12.336H52.032C51.9267 12.336 51.868 12.3947 51.868 12.5013V27.6267C51.868 27.7333 51.9267 27.792 52.0333 27.792H54.9933C55.0987 27.792 55.1573 27.7333 55.1573 27.6267V21.5787C55.912 22.9453 57.1853 24.2907 59.4733 24.2907C62.492 24.2907 64.66 21.684 64.66 18.1827C64.66 14.6813 62.468 12.1227 59.4493 12.1227ZM58.5773 21.4373C56.9973 21.4373 55.6293 19.8813 55.0867 18.16C55.6293 16.344 56.8787 14.9533 58.5773 14.9533C60.192 14.9533 61.312 16.18 61.312 18.184C61.312 20.188 60.192 21.4373 58.5773 21.4373ZM112.755 12.336H109.736C109.629 12.336 109.583 12.3587 109.536 12.4653L106.493 19.776L103.44 12.4653C103.393 12.3587 103.347 12.336 103.24 12.336H98.3587V11.5573C98.3587 10.284 99.2187 9.69466 100.327 9.69466C100.988 9.69466 101.707 10.036 102.213 10.3427C102.332 10.4133 102.413 10.332 102.367 10.2253L101.305 7.69067C101.273 7.61358 101.215 7.55062 101.14 7.51333C100.621 7.24267 99.7733 7.00667 98.948 7.00667C96.448 7.00667 95.0093 8.916 95.0093 11.3453V12.336H93.0053C92.8987 12.336 92.84 12.3947 92.84 12.5013V14.8587C92.84 14.9653 92.8987 15.024 93.0053 15.024H95.0093V23.9147C95.0093 24.0213 95.068 24.0787 95.1747 24.0787H98.1933C98.3 24.0787 98.3587 24.02 98.3587 23.9147V15.024H100.94L104.689 23.1707L102.673 27.604C102.615 27.7347 102.685 27.7933 102.803 27.7933H106.021C106.128 27.7933 106.176 27.7693 106.221 27.664L112.884 12.524C112.931 12.4173 112.872 12.336 112.755 12.336ZM72.0187 12.0533C68.1987 12.0533 65.5693 14.7533 65.5693 18.208C65.5693 21.6387 68.1973 24.3627 72.0187 24.3627C75.8267 24.3627 78.48 21.6387 78.48 18.208C78.48 14.7533 75.8267 12.0533 72.0187 12.0533ZM72.0293 21.4733C70.2027 21.4733 68.9053 20.0827 68.9053 18.2067C68.9053 16.3333 70.2027 14.9413 72.0293 14.9413C73.8453 14.9413 75.1427 16.332 75.1427 18.208C75.1427 20.0827 73.8453 21.4747 72.0293 21.4747M116.751 13.0293C116.598 12.7645 116.375 12.5471 116.107 12.4013C115.823 12.2472 115.505 12.1691 115.183 12.1747C114.841 12.1747 114.533 12.2502 114.259 12.4013C113.99 12.5469 113.766 12.7643 113.613 13.0293C113.459 13.2978 113.381 13.6004 113.381 13.9373C113.381 14.2707 113.459 14.5716 113.613 14.84C113.769 15.1067 113.984 15.316 114.259 15.468C114.533 15.62 114.841 15.6956 115.183 15.6947C115.524 15.6938 115.832 15.6182 116.107 15.468C116.381 15.3178 116.596 15.1084 116.751 14.84C116.905 14.5716 116.983 14.2711 116.984 13.9387C116.984 13.6009 116.906 13.2978 116.751 13.0293ZM116.469 14.692C116.347 14.9114 116.165 15.0916 115.944 15.212C115.711 15.3391 115.448 15.4035 115.183 15.3987C114.915 15.404 114.65 15.3397 114.415 15.212C114.196 15.091 114.015 14.9108 113.893 14.692C113.767 14.4609 113.702 14.2008 113.707 13.9373C113.707 13.6564 113.769 13.4067 113.893 13.188C114.018 12.9693 114.192 12.7969 114.415 12.6707C114.638 12.5444 114.894 12.4822 115.183 12.484C115.467 12.484 115.72 12.5462 115.943 12.6707C116.168 12.796 116.343 12.9693 116.469 13.1907C116.596 13.412 116.659 13.6631 116.659 13.944C116.659 14.2213 116.596 14.4702 116.469 14.6907M90.0227 6.984C88.8893 6.984 88.0653 7.784 88.0653 8.84533C88.0653 9.90666 88.8907 10.708 90.0227 10.708C91.1773 10.708 92.0027 9.908 92.0027 8.84533C92.0027 7.784 91.1773 6.984 90.0227 6.984ZM115.795 13.9027C115.851 13.8638 115.897 13.8115 115.928 13.7505C115.959 13.6896 115.975 13.6218 115.973 13.5533C115.973 13.404 115.915 13.2858 115.797 13.1987C115.68 13.1107 115.511 13.0667 115.289 13.0667H114.505V14.7053H114.884V14.0533H115.089L115.588 14.7053H116.055L115.508 14.0147C115.611 14.0002 115.709 13.9618 115.795 13.9027ZM115.229 13.7573H114.883V13.3573H115.243C115.349 13.3573 115.431 13.3733 115.488 13.4053C115.516 13.4197 115.539 13.442 115.555 13.4696C115.57 13.4971 115.577 13.5285 115.575 13.56C115.576 13.5906 115.568 13.6209 115.552 13.6471C115.536 13.6733 115.513 13.6945 115.485 13.708C115.405 13.7454 115.317 13.7623 115.229 13.7573ZM91.5427 12.336H88.5253C88.4187 12.336 88.36 12.3947 88.36 12.5013V23.9147C88.36 24.0213 88.4187 24.0787 88.5253 24.0787H91.5427C91.6493 24.0787 91.708 24.02 91.708 23.9147V12.5013C91.708 12.3947 91.6493 12.336 91.5427 12.336ZM87.0987 21.1427C86.6687 21.3778 86.1846 21.4959 85.6947 21.4853C84.728 21.4853 84.1147 20.9187 84.1147 19.6693V15.024H87.0627C87.1693 15.024 87.228 14.9653 87.228 14.8587V12.5013C87.228 12.3947 87.1693 12.336 87.0627 12.336H84.116V9.25867C84.116 9.12933 84.032 9.05867 83.916 9.152L78.644 13.3027C78.5733 13.3613 78.5507 13.42 78.5507 13.516V14.8587C78.5507 14.9653 78.6093 15.024 78.7147 15.024H80.7667V20.164C80.7667 22.9467 82.3707 24.244 84.6573 24.244C85.648 24.244 86.604 23.9853 87.1693 23.6547C87.252 23.608 87.2627 23.5613 87.2627 23.4773V21.2373C87.2627 21.12 87.204 21.0827 87.0987 21.1427Z" fill="white"/>
</svg>
