<svg width="35" height="35" viewBox="0 0 35 35" fill="none" xmlns="http://www.w3.org/2000/svg">
<path d="M24.75 17.5C24.75 17.6989 24.671 17.8897 24.5303 18.0303C24.3897 18.171 24.1989 18.25 24 18.25H18.25V24C18.25 24.1989 18.171 24.3897 18.0303 24.5303C17.8897 24.671 17.6989 24.75 17.5 24.75C17.3011 24.75 17.1103 24.671 16.9697 24.5303C16.829 24.3897 16.75 24.1989 16.75 24V18.25H11C10.8011 18.25 10.6103 18.171 10.4697 18.0303C10.329 17.8897 10.25 17.6989 10.25 17.5C10.25 17.3011 10.329 17.1103 10.4697 16.9697C10.6103 16.829 10.8011 16.75 11 16.75H16.75V11C16.75 10.8011 16.829 10.6103 16.9697 10.4697C17.1103 10.329 17.3011 10.25 17.5 10.25C17.6989 10.25 17.8897 10.329 18.0303 10.4697C18.171 10.6103 18.25 10.8011 18.25 11V16.75H24C24.1989 16.75 24.3897 16.829 24.5303 16.9697C24.671 17.1103 24.75 17.3011 24.75 17.5Z" fill="#B3B3B3"/>
</svg>
