<svg width="48" height="48" viewBox="0 0 48 48" fill="none" xmlns="http://www.w3.org/2000/svg">
<path d="M21.066 2.55786C10.7043 2.55786 2.25195 10.8377 2.25195 21.1158C2.25195 31.394 10.7043 39.6738 21.066 39.6738C25.534 39.6738 29.647 38.1342 32.8804 35.5588L41.5858 44.264C42.3668 45.0452 43.6332 45.0452 44.4142 44.264C45.1952 43.483 45.1952 42.2166 44.4142 41.4356L35.7268 32.7482C38.3232 29.5698 39.88 25.5268 39.88 21.1158C39.88 10.8377 31.4276 2.55786 21.066 2.55786ZM6.25195 21.1158C6.25195 13.1045 12.8554 6.55786 21.066 6.55786C29.2766 6.55786 35.88 13.1045 35.88 21.1158C35.88 29.1272 29.2766 35.6738 21.066 35.6738C12.8554 35.6738 6.25195 29.1272 6.25195 21.1158Z" fill="#B3B3B3"/>
</svg>
