<svg width="26" height="29" viewBox="0 0 26 29" fill="none" xmlns="http://www.w3.org/2000/svg">
<path fill-rule="evenodd" clip-rule="evenodd" d="M6.57668 19.3333H12.2433L14.8267 9.66663H6.57668C3.91001 9.66663 1.74335 11.8333 1.74335 14.5C1.74335 17.1666 3.91001 19.3333 6.57668 19.3333Z" fill="white"/>
<path fill-rule="evenodd" clip-rule="evenodd" d="M19.2433 8.66663H6.57668C3.32668 8.66663 0.743347 11.25 0.743347 14.5C0.743347 17.75 3.32668 20.3333 6.57668 20.3333H19.2433C22.4933 20.3333 25.0767 17.75 25.0767 14.5C25.0767 11.25 22.41 8.66663 19.2433 8.66663ZM1.74335 14.5C1.74335 11.8333 3.91001 9.66663 6.57668 9.66663H14.8267L12.2433 19.3333H6.57668C3.91001 19.3333 1.74335 17.1666 1.74335 14.5Z" fill="#0066FF"/>
<path d="M20.91 12C21.0767 12.1667 21.0767 12.5 20.91 12.6667L19.16 14.5L20.9934 16.3333C21.16 16.5 21.16 16.8333 20.9934 17C20.8267 17.1667 20.4934 17.1667 20.3267 17L18.4934 15.1667L16.66 17C16.4934 17.1667 16.16 17.1667 15.9934 17C15.8267 16.8333 15.8267 16.5 15.9934 16.3333L17.7434 14.5L15.91 12.6667C15.7434 12.5 15.7434 12.1667 15.91 12C16.0767 11.8333 16.41 11.8333 16.5767 12L18.41 13.8333L20.2434 12C20.41 11.8333 20.7434 11.8333 20.91 12Z" fill="white"/>
<path d="M10.9934 12.0834C11.16 12.25 11.2434 12.5834 11.0767 12.75L7.5767 16.8334C7.49337 16.9167 7.41003 17 7.3267 17C7.16003 17.0834 6.91003 17.0834 6.74337 16.9167L4.91003 15.0834C4.74337 14.9167 4.74337 14.5834 4.91003 14.4167C5.0767 14.25 5.41003 14.25 5.5767 14.4167L7.0767 15.8334L10.2434 12.0834C10.41 11.9167 10.7434 11.9167 10.9934 12.0834Z" fill="#0066FF"/>
</svg>
